<svg xmlns="http://www.w3.org/2000/svg" viewBox="0 0 100 88" width="100" height="88"><rect width="100" height="88" rx="10" fill="#000"/><g transform="translate(5,5) scale(0.98)"><path d="M83.4648 39.9858L89.9028 53.141L89.8236 75.2975L86.4665 78.7246C86.4665 78.7246 34.6142 78.7807 8.68807 78.8241C6.54801 78.8266 2.27045 79.0026 2.27045 79.0026L0 76.8045C0 76.8045 0.0971591 63.861 0.107386 57.3892C0.12017 48.8622 0.0690341 31.8081 0.0690341 31.8081L2.85852 28.8654L24.4253 28.8119L27.0767 31.4026L26.9616 53.7861L29.8662 56.8103L60.6043 56.5401L62.8977 53.7912L60.5301 51.1112L36.9051 50.9404L33.8881 47.8957L33.6835 31.9152L36.6827 28.8144L59.85 28.6742L62.8108 25.6755L59.7324 22.6053L35.642 22.6002L32.983 20.012L32.9446 2.425L35.3122 0.053549L87.6222 0L89.9974 2.323L89.9054 29.0465L83.4648 39.9858Z" fill="white"/><path d="M13.5588 22.3044C9.73892 22.3044 2.10426 22.3223 2.10426 22.3223L0.0485795 20.3512L0 2.10371L1.9304 0.0280494L25.2997 0L27.1074 1.94306L27.0767 20.42L25.0133 22.3554C25.0133 22.3554 17.3761 22.335 13.5562 22.335V22.3044H13.5588Z" fill="white"/></g></svg>